<?xml version="1.0" encoding="utf-8"?>
<!-- Generator: Adobe Illustrator 25.3.1, SVG Export Plug-In . SVG Version: 6.00 Build 0)  -->
<svg version="1.1" id="Layer_1" xmlns="http://www.w3.org/2000/svg" xmlns:xlink="http://www.w3.org/1999/xlink" x="0px" y="0px"
	 viewBox="0 0 149.7 64.1" style="enable-background:new 0 0 149.7 64.1;" xml:space="preserve">
<style type="text/css">
	.st0{fill:#CD2026;}
	.st1{fill:#0B0E55;}
</style>
<path class="st0" d="M99.7,0.6v10.3c0,1.2-0.1,2-0.3,2.5s-0.8,1-1.7,1.5S95.5,15.8,94,16c-1.5,0.3-3.4,0.4-5.5,0.4
	c-2.3,0-4.4-0.2-6.1-0.5c-1.8-0.3-3.1-0.7-4-1.2s-1.4-1-1.6-1.6c-0.1-0.5-0.1-1.7-0.1-3.5V0.5h10.1v11.6c0,0.7,0.1,1.1,0.3,1.3
	c0.2,0.2,0.5,0.3,1,0.3c0.6,0,1-0.1,1.2-0.3s0.3-0.7,0.3-1.5V0.5L99.7,0.6L99.7,0.6z M122.5,5.3h-9.3V4.1c0-0.6-0.1-0.9-0.4-1.1
	c-0.2-0.1-0.6-0.2-1.2-0.2s-1.1,0.1-1.4,0.3s-0.5,0.5-0.5,0.9c0,0.5,0.2,0.9,0.5,1.2s1.3,0.6,2.9,0.9c4.5,1.1,7.3,2,8.5,2.7
	s1.8,1.8,1.8,3.3c0,1.1-0.3,1.9-1,2.5c-0.7,0.5-1.9,1-3.8,1.3c-1.9,0.4-4,0.5-6.5,0.5c-2.7,0-5-0.2-7-0.6c-1.9-0.4-3.2-0.9-3.8-1.6
	c-0.6-0.6-0.9-1.5-0.9-2.7v-1h9.3v1.9c0,0.6,0.1,1,0.4,1.1c0.3,0.2,0.7,0.3,1.4,0.3s1.2-0.1,1.5-0.3s0.5-0.5,0.5-1
	c0-0.9-0.3-1.5-0.9-1.8s-2.2-0.7-4.7-1.4s-4.2-1.2-5-1.5s-1.5-0.7-2-1.3s-0.8-1.2-0.8-2c0-1.2,0.4-2.1,1.1-2.6c0.8-0.6,2-1,3.7-1.3
	s3.8-0.5,6.2-0.5c2.6,0,4.9,0.2,6.7,0.5c1.9,0.3,3.1,0.8,3.7,1.3s0.9,1.4,0.9,2.6L122.5,5.3L122.5,5.3z M133.3,10.4
	c0.2-1.3,0.9-3.5,1.8-6.5c0.6,2.6,1.1,4.8,1.6,6.5H133.3L133.3,10.4z M127.4,0.6l-5.2,15.5h10.5l0.5-2.8h3.6l0.5,2.8h10.4l-5.9-15.5
	L127.4,0.6L127.4,0.6z"/>
<path class="st1" d="M41.2,17.1l1.7-6l-5.1-3.4L44,7.4l1.7-6l2.2,5.8l6.2-0.3l-4.8,3.8l2.2,5.8l-5.1-3.4L41.6,17L41.2,17.1z M41,8.6
	l3.1,2l-1,3.6l2.9-2.3l3.1,2l-1.3-3.5l2.9-2.3L47,8.3l-1.3-3.4l-1,3.6C44.7,8.4,41,8.6,41,8.6z M141.4,49.7c0-1,0.8-1.8,1.8-1.8
	s1.8,0.8,1.8,1.8c0,1.1-0.8,1.8-1.8,1.8C142.2,51.6,141.4,50.8,141.4,49.7z M143.2,51.9c1.2,0,2.2-0.9,2.2-2.2s-1-2.2-2.2-2.2
	s-2.2,0.9-2.2,2.2C141,51,142.1,51.9,143.2,51.9L143.2,51.9z M142.7,49.9h0.4l0.7,1.1h0.4l-0.7-1.1c0.4,0,0.7-0.2,0.7-0.7
	s-0.3-0.7-0.9-0.7h-1V51h0.4L142.7,49.9L142.7,49.9z M142.7,49.6v-0.8h0.5c0.3,0,0.6,0.1,0.6,0.4c0,0.4-0.3,0.4-0.6,0.4
	C143.2,49.6,142.7,49.6,142.7,49.6z M119.5,43.9c-1,1.8-2.6,3.7-4.2,3.7c-2.1,0-3.1-2.4-3.1-5.4c0-6.5,3.8-8.7,7.3-9.2
	C119.5,33,119.5,43.9,119.5,43.9z M125.7,28.6c0-3.1,0-6.2-2-8.7c-1.6-2-4.5-2.5-6.5-2.5c-7.4,0-9.9,4.9-9.9,8.3
	c0,2.3,1.3,3.9,2.7,3.9c1.7,0,2.7-2.5,3.2-4.8c0.6-2.6,1.1-5.1,3.3-5.1c3.1,0,2.9,5.2,2.9,8.5V30c-4.7,1.2-13.7,3.7-13.7,13.2
	c0,6,2.8,8.6,6.4,8.6c2.9,0,5.2-1.4,7.4-4.1c0.9,2.5,2.5,4.1,4.3,4.1s3.8-1.8,4.9-4.1l-0.3-1.2c-0.4,0.2-0.7,0.4-1.1,0.4
	c-1.5,0-1.4-2.1-1.5-3.8V28.8h0.1L125.7,28.6z M136.4,18.3v2.1c-1,0.1-1.9,0.8-1.9,2.6c0,1.4,0.4,2.8,0.8,4l3.8,12.7l3.3-11
	c0.4-1.3,0.9-2.9,0.9-4.3c0-2.1-0.6-3.4-2.9-4v-2.1h9v2.1c-3,1.2-3.7,4.3-4.8,8.3L138,51.4c-1.7,6-3.8,12.5-8.7,12.5
	c-1.8,0-3.8-1.7-3.8-4.8c0-2.5,1.4-4.4,3-4.4c2.1,0,2.8,3.5,3.9,3.5c1.5,0,3.1-5.3,3.6-7.1l-7.8-25.7c-0.7-2.5-1.4-4.7-3.4-4.9v-2.1
	h11.4L136.4,18.3z M23.6,17.6l2.5-0.9l2-8.8l-2.2-0.4L23.6,17.6z M15.4,44.3l6.1-6.9l4.3-19.3L23.3,19l-3.1,13.4l-2.6-11.5l-7.1,2.3
	L15.4,44.3z M28.4,29.7l7.1-8v-6.8l-7.1,2.3C28.4,17.2,28.4,29.7,28.4,29.7z M13.9,3.9l-0.6-2.5H0.5L13.9,3.9z M28.4,16l7.1-2.4V9.8
	c0-0.2,0-0.4,0-0.6l-7.1-1.3C28.4,7.9,28.4,16,28.4,16z M35.4,42.4V23.7l-7.1,8v10.7c0,4.8-1.1,6.3-4.2,6.3V51h15.6v-2.3
	C36.6,48.6,35.5,47.1,35.4,42.4L35.4,42.4z M27.3,1.4l-1.1,4.9l9.3,1.8C35.8,4.6,37,4,39.7,3.7V1.4H27.3L27.3,1.4z M15.7,45.9
	l1.2,5.1h1.6l2.4-10.9L15.7,45.9z M7,35.9V24.5l-2.3,0.7v10.6c0,11-0.7,11.7-4.5,12.9V51h10.9v-2.3C7.4,48.1,7,46.7,7,35.9z
	 M0.5,3.6c2.9,0,4.2,1.2,4.2,6.2v14L7,23V8.3h0.1l3.2,13.6l7.1-2.4L14.2,5.3L0.5,2.8V3.6z M39.7,48.9V51h5.7V18.4L39.5,21v2.1
	c2.5,0.5,3.1,2.9,3.1,6.5v13.7C42.6,48.5,41.3,48.8,39.7,48.9L39.7,48.9z M48.9,44.5V16.8l-2.2,1L46.8,51h4.9v-2.1
	C50.3,48.9,48.9,48.5,48.9,44.5z M66.5,7.8c0.5,1.1,0.7,2.7,0.7,4.7v3.8l6.3,1.4V6.1C73.4,6.1,66.5,7.8,66.5,7.8z M67.2,17.7v3.6
	c-1.8-2.1-3.9-3.8-6.1-3.8c-2,0-4.3,1.2-6.2,3.9l4,4.5c1.1-3.3,2.7-4.3,3.7-4.3c1.5,0,3.5,1.7,4.6,3.3v10.3l6.3,7.1V19L67.2,17.7
	L67.2,17.7z M73.4,4.8V0.2L63.8,4v2.1c0.8,0.1,1.4,0.3,1.9,0.8L73.4,4.8L73.4,4.8z M73.4,44.3L67,37.1v6.8c-1.1,2.1-2.2,3.8-4.2,3.8
	c-4,0-5.3-8.7-5.3-13.5c0-2.9,0.3-5.1,0.7-6.9l-4.3-4.9c-1.7,2.9-2.8,7.1-2.8,12.7c0,9.2,3.6,16.5,9.7,16.5c2.4,0,4.5-1.4,6.1-4v4.5
	c2.7-0.8,5.5-0.9,9.4-1.2v-2.1C74.3,48.6,73.5,47,73.4,44.3L73.4,44.3z M84.8,20.2v-1.9h-8.6L84.8,20.2z M100.9,18.3v2.1
	c1.5,0,2.7,1.3,2.7,3.9c0,1.4-0.4,2.8-0.7,4.1l-3,11.4l-3.4-14c-0.2-0.9-0.6-2.2-0.6-3.1c0-1.8,1-2,1.9-2.2v-2.1H86.4v2.1
	c2.1,0.7,2.8,2.7,3.5,5.7l0.4,1.5l-3.4,12.2l-3.2-13.4c-0.3-1.1-0.7-2.7-0.7-3.8c0-0.6,0.2-1.1,0.5-1.4L74,19.2v1.3
	c1.8,0.5,2.4,3.3,3,5.6l6.6,25.6h2.8l5.3-19.3l4.8,19.3h2.9l6.2-23.8c0.8-3.1,1.7-6.4,3.8-7.4v-2.1h-8.2L100.9,18.3z"/>
</svg>
